<svg xmlns="http://www.w3.org/2000/svg" width="16" height="8" viewBox="0 0 16 8"><g><g><path fill="red" d="M16 1.011a.982.982 0 0 0-.352-.741 1.33 1.33 0 0 0-1.7 0L7.993 5.462 2.04.27a1.33 1.33 0 0 0-1.701 0c-.47.41-.47 1.073 0 1.483l6.804 5.934c.47.41 1.231.41 1.7 0l6.805-5.934a.982.982 0 0 0 .353-.742z"/><path fill="#31bcfe" d="M16 1.011a.982.982 0 0 0-.352-.741 1.33 1.33 0 0 0-1.7 0L7.993 5.462 2.04.27a1.33 1.33 0 0 0-1.701 0c-.47.41-.47 1.073 0 1.483l6.804 5.934c.47.41 1.231.41 1.7 0l6.805-5.934a.982.982 0 0 0 .353-.742z"/></g></g></svg>
