<svg xmlns="http://www.w3.org/2000/svg" width="47" height="44" viewBox="0 0 47 44"><g><g><path fill="#6d6e76" d="M23.5 3.352c-10.982 0-19.917 8.371-19.917 18.647 0 10.285 8.935 18.65 19.917 18.65 10.982 0 19.917-8.365 19.917-18.65 0-10.276-8.935-18.647-19.917-18.647 0 0 10.982 0 0 0zM23.5 0c12.975 0 23.496 9.847 23.496 21.998 0 12.143-10.52 22-23.496 22-12.975 0-23.496-9.857-23.496-22C.004 9.848 10.524 0 23.5 0zm5.06 21.993l6.416 6.008-5.061 4.74L23.5 26.74l-6.42 6.003-5.06-4.74 6.419-6.008-6.419-6.003 5.06-4.743 6.42 6.008 6.415-6.008 5.06 4.743z"/><path fill="#fff" d="M23.5 3.352c-10.982 0-19.917 8.371-19.917 18.647 0 10.285 8.935 18.65 19.917 18.65 10.982 0 19.917-8.365 19.917-18.65 0-10.276-8.935-18.647-19.917-18.647 0 0 10.982 0 0 0zM23.5 0c12.975 0 23.496 9.847 23.496 21.998 0 12.143-10.52 22-23.496 22-12.975 0-23.496-9.857-23.496-22C.004 9.848 10.524 0 23.5 0zm5.06 21.993l6.416 6.008-5.061 4.74L23.5 26.74l-6.42 6.003-5.06-4.74 6.419-6.008-6.419-6.003 5.06-4.743 6.42 6.008 6.415-6.008 5.06 4.743z"/></g></g></svg>