<svg xmlns="http://www.w3.org/2000/svg" width="41" height="41" viewBox="0 0 41 41"><g><g><path fill="#3e3e3e" d="M20.499 41.017a5.09 5.09 0 0 1-3.624-1.501L2.088 25.217a1.215 1.215 0 0 1-.211-.17A6.365 6.365 0 0 1 0 20.517c0-1.711.667-3.32 1.877-4.53L16.89 1.47A5.078 5.078 0 0 1 20.5-.018c1.37 0 2.656.533 3.623 1.502a5.088 5.088 0 0 1 1.502 3.623 5.089 5.089 0 0 1-1.502 3.624l-5.339 5.55a.653.653 0 0 0-.205.47.643.643 0 0 0 .64.64h16.657A5.136 5.136 0 0 1 41 20.449v.047c-.013 2.825-2.311 5.113-5.125 5.113H19.219c-.23 0-.383.12-.453.19a.638.638 0 0 0 0 .904l5.374 5.585a5.074 5.074 0 0 1 1.484 3.606 5.087 5.087 0 0 1-1.502 3.624 5.084 5.084 0 0 1-3.623 1.501zM3.526 23.063c.052.036.101.077.148.122l14.998 14.504c.998.998 2.67.984 3.638.015.485-.484.751-1.128.751-1.812 0-.684-.266-1.328-.75-1.812l-5.374-5.585a3.166 3.166 0 0 1-.921-2.247c0-.855.331-1.657.934-2.26a3.177 3.177 0 0 1 2.269-.943h16.656a2.568 2.568 0 0 0 2.562-2.55 2.565 2.565 0 0 0-2.562-2.54H19.219a3.182 3.182 0 0 1-2.272-.947c-.6-.6-.931-1.402-.931-2.256 0-.856.332-1.66.938-2.265l5.339-5.55a2.56 2.56 0 0 0 .017-3.641c-.968-.97-2.655-.97-3.623 0L3.674 17.814a3.809 3.809 0 0 0-1.112 2.703c0 .948.34 1.843.964 2.546z"/><path fill="#cecece" d="M20.499 41.017a5.09 5.09 0 0 1-3.624-1.501L2.088 25.217a1.215 1.215 0 0 1-.211-.17A6.365 6.365 0 0 1 0 20.517c0-1.711.667-3.32 1.877-4.53L16.89 1.47A5.078 5.078 0 0 1 20.5-.018c1.37 0 2.656.533 3.623 1.502a5.088 5.088 0 0 1 1.502 3.623 5.089 5.089 0 0 1-1.502 3.624l-5.339 5.55a.653.653 0 0 0-.205.47.643.643 0 0 0 .64.64h16.657A5.136 5.136 0 0 1 41 20.449v.047c-.013 2.825-2.311 5.113-5.125 5.113H19.219c-.23 0-.383.12-.453.19a.638.638 0 0 0 0 .904l5.374 5.585a5.074 5.074 0 0 1 1.484 3.606 5.087 5.087 0 0 1-1.502 3.624 5.084 5.084 0 0 1-3.623 1.501zM3.526 23.063c.052.036.101.077.148.122l14.998 14.504c.998.998 2.67.984 3.638.015.485-.484.751-1.128.751-1.812 0-.684-.266-1.328-.75-1.812l-5.374-5.585a3.166 3.166 0 0 1-.921-2.247c0-.855.331-1.657.934-2.26a3.177 3.177 0 0 1 2.269-.943h16.656a2.568 2.568 0 0 0 2.562-2.55 2.565 2.565 0 0 0-2.562-2.54H19.219a3.182 3.182 0 0 1-2.272-.947c-.6-.6-.931-1.402-.931-2.256 0-.856.332-1.66.938-2.265l5.339-5.55a2.56 2.56 0 0 0 .017-3.641c-.968-.97-2.655-.97-3.623 0L3.674 17.814a3.809 3.809 0 0 0-1.112 2.703c0 .948.34 1.843.964 2.546z"/></g></g></svg>