<svg xmlns="http://www.w3.org/2000/svg" width="41" height="41" viewBox="0 0 41 41"><g><g><path fill="#3e3e3e" d="M16.878 39.516a5.087 5.087 0 0 1-1.502-3.624c0-1.369.533-2.656 1.484-3.606l5.374-5.585a.638.638 0 0 0 0-.904.636.636 0 0 0-.453-.19H5.125C2.31 25.607.013 23.319 0 20.494v-.012-.035a5.136 5.136 0 0 1 5.125-5.054H21.78a.643.643 0 0 0 .64-.641.653.653 0 0 0-.204-.47l-5.34-5.55a5.089 5.089 0 0 1-1.5-3.625c0-1.368.532-2.655 1.5-3.623a5.084 5.084 0 0 1 3.624-1.502c1.369 0 2.655.533 3.609 1.487l15.013 14.518A6.363 6.363 0 0 1 41 20.517c0 1.712-.667 3.32-1.877 4.53a1.215 1.215 0 0 1-.211.17L24.125 39.516a5.09 5.09 0 0 1-3.624 1.501 5.084 5.084 0 0 1-3.623-1.501zm21.56-18.999c0-1.026-.4-1.991-1.112-2.703L22.313 3.295c-.968-.968-2.655-.968-3.624 0a2.56 2.56 0 0 0 .018 3.641l5.339 5.55a3.18 3.18 0 0 1 .938 2.266c0 .854-.331 1.657-.93 2.256a3.182 3.182 0 0 1-2.273.947H5.125a2.565 2.565 0 0 0-2.563 2.54 2.568 2.568 0 0 0 2.563 2.55H21.78c.859 0 1.666.336 2.269.943.603.603.934 1.405.934 2.26 0 .855-.332 1.66-.92 2.247l-5.375 5.585a2.547 2.547 0 0 0-.75 1.812c0 .684.266 1.328.75 1.812.969.969 2.64.983 3.639-.015l14.998-14.504a1.1 1.1 0 0 1 .148-.122 3.816 3.816 0 0 0 .963-2.546z"/><path fill="#cecece" d="M16.878 39.516a5.087 5.087 0 0 1-1.502-3.624c0-1.369.533-2.656 1.484-3.606l5.374-5.585a.638.638 0 0 0 0-.904.636.636 0 0 0-.453-.19H5.125C2.31 25.607.013 23.319 0 20.494v-.012-.035a5.136 5.136 0 0 1 5.125-5.054H21.78a.643.643 0 0 0 .64-.641.653.653 0 0 0-.204-.47l-5.34-5.55a5.089 5.089 0 0 1-1.5-3.625c0-1.368.532-2.655 1.5-3.623a5.084 5.084 0 0 1 3.624-1.502c1.369 0 2.655.533 3.609 1.487l15.013 14.518A6.363 6.363 0 0 1 41 20.517c0 1.712-.667 3.32-1.877 4.53a1.215 1.215 0 0 1-.211.17L24.125 39.516a5.09 5.09 0 0 1-3.624 1.501 5.084 5.084 0 0 1-3.623-1.501zm21.56-18.999c0-1.026-.4-1.991-1.112-2.703L22.313 3.295c-.968-.968-2.655-.968-3.624 0a2.56 2.56 0 0 0 .018 3.641l5.339 5.55a3.18 3.18 0 0 1 .938 2.266c0 .854-.331 1.657-.93 2.256a3.182 3.182 0 0 1-2.273.947H5.125a2.565 2.565 0 0 0-2.563 2.54 2.568 2.568 0 0 0 2.563 2.55H21.78c.859 0 1.666.336 2.269.943.603.603.934 1.405.934 2.26 0 .855-.332 1.66-.92 2.247l-5.375 5.585a2.547 2.547 0 0 0-.75 1.812c0 .684.266 1.328.75 1.812.969.969 2.64.983 3.639-.015l14.998-14.504a1.1 1.1 0 0 1 .148-.122 3.816 3.816 0 0 0 .963-2.546z"/></g></g></svg>