<svg xmlns="http://www.w3.org/2000/svg" xmlns:xlink="http://www.w3.org/1999/xlink" width="41" height="41" viewBox="0 0 41 41"><defs><path id="r5vqa" d="M293.499 423.017a5.09 5.09 0 0 1-3.624-1.501l-14.787-14.299a1.215 1.215 0 0 1-.211-.17 6.365 6.365 0 0 1-1.877-4.53c0-1.711.667-3.32 1.877-4.53l15.013-14.518a5.078 5.078 0 0 1 3.609-1.487c1.37 0 2.656.533 3.623 1.502a5.089 5.089 0 0 1 1.502 3.623 5.09 5.09 0 0 1-1.502 3.624l-5.339 5.55a.653.653 0 0 0-.205.47.644.644 0 0 0 .64.64h16.657a5.136 5.136 0 0 1 5.125 5.056v.047c-.013 2.825-2.311 5.113-5.125 5.113h-16.656a.638.638 0 0 0-.453.19.638.638 0 0 0 0 .904l5.374 5.585a5.073 5.073 0 0 1 1.484 3.606 5.088 5.088 0 0 1-1.502 3.624 5.084 5.084 0 0 1-3.623 1.501zm-16.973-17.954c.052.036.101.077.148.121l14.998 14.505c.998.998 2.67.984 3.638.015.485-.484.751-1.127.751-1.812 0-.684-.266-1.328-.75-1.812l-5.374-5.585a3.166 3.166 0 0 1-.921-2.247c0-.855.331-1.657.934-2.26a3.178 3.178 0 0 1 2.269-.943h16.656a2.568 2.568 0 0 0 2.562-2.55 2.565 2.565 0 0 0-2.562-2.54h-16.656a3.183 3.183 0 0 1-2.272-.947 3.17 3.17 0 0 1-.931-2.256c0-.856.332-1.66.938-2.265l5.339-5.55a2.56 2.56 0 0 0 .017-3.641c-.968-.97-2.655-.97-3.623 0l-15.013 14.518a3.808 3.808 0 0 0-1.112 2.703c0 .948.34 1.843.964 2.546z"/></defs><g><g transform="translate(-273 -382)"><use fill="#3e3e3e" xlink:href="#r5vqa"/><use fill="#cecece" xlink:href="#r5vqa"/></g></g></svg>