<svg xmlns="http://www.w3.org/2000/svg" xmlns:xlink="http://www.w3.org/1999/xlink" width="41" height="41" viewBox="0 0 41 41"><defs><path id="brtca" d="M1602.878 421.516a5.088 5.088 0 0 1-1.502-3.624c0-1.369.533-2.656 1.484-3.606l5.374-5.585a.638.638 0 0 0 0-.904.638.638 0 0 0-.453-.19h-16.656c-2.814 0-5.112-2.288-5.125-5.113v-.012-.035a5.136 5.136 0 0 1 5.125-5.055h16.656a.644.644 0 0 0 .64-.64.653.653 0 0 0-.204-.47l-5.34-5.55a5.09 5.09 0 0 1-1.5-3.625c0-1.368.532-2.655 1.5-3.623a5.085 5.085 0 0 1 3.624-1.502c1.369 0 2.655.533 3.609 1.487l15.013 14.518a6.365 6.365 0 0 1 1.877 4.53c0 1.712-.667 3.32-1.877 4.53a1.215 1.215 0 0 1-.211.17l-14.787 14.299a5.09 5.09 0 0 1-3.624 1.501 5.084 5.084 0 0 1-3.623-1.501zm21.56-18.999c0-1.026-.4-1.991-1.112-2.703l-15.013-14.518c-.968-.97-2.655-.97-3.624 0a2.56 2.56 0 0 0 .018 3.641l5.339 5.55a3.18 3.18 0 0 1 .938 2.265 3.17 3.17 0 0 1-.93 2.256 3.183 3.183 0 0 1-2.273.947h-16.656a2.565 2.565 0 0 0-2.563 2.54 2.568 2.568 0 0 0 2.563 2.55h16.656c.859 0 1.666.336 2.269.943.603.603.934 1.405.934 2.26 0 .855-.332 1.66-.92 2.247l-5.375 5.585a2.546 2.546 0 0 0-.75 1.812c0 .685.266 1.328.75 1.812.969.969 2.64.983 3.639-.015l14.998-14.505c.047-.044.095-.085.148-.12a3.814 3.814 0 0 0 .963-2.547z"/></defs><g><g transform="translate(-1586 -382)"><use fill="#3e3e3e" xlink:href="#brtca"/><use fill="#06121c" xlink:href="#brtca"/></g></g></svg>